<svg width="1104" height="1104" viewBox="0 0 1104 1104" fill="none" xmlns="http://www.w3.org/2000/svg">
<path d="M40 90C40 62.3858 62.3858 40 90 40H1014C1041.61 40 1064 62.3858 1064 90V1014C1064 1041.61 1041.61 1064 1014 1064H90C62.3858 1064 40 1041.61 40 1014V90Z" fill="white"/>
<path d="M277.204 517.727L277.567 411.727H289.931L368.476 311.727H469.204L352.476 455H329.022L277.204 517.727ZM197.022 591V218.636H285.931V591H197.022ZM370.476 591L297.385 475L355.931 411.909L473.204 591H370.476ZM505.509 595.727C487.691 595.727 471.873 592.758 458.055 586.818C444.358 580.758 433.509 571.667 425.509 559.545C417.63 547.303 413.691 531.97 413.691 513.545C413.691 498.03 416.418 484.939 421.873 474.273C427.327 463.606 434.842 454.939 444.418 448.273C453.994 441.606 465.024 436.576 477.509 433.182C489.994 429.667 503.327 427.303 517.509 426.091C533.388 424.636 546.176 423.121 555.873 421.545C565.57 419.848 572.6 417.485 576.964 414.455C581.448 411.303 583.691 406.879 583.691 401.182V400.273C583.691 390.939 580.479 383.727 574.055 378.636C567.63 373.545 558.964 371 548.055 371C536.297 371 526.842 373.545 519.691 378.636C512.539 383.727 507.994 390.758 506.055 399.727L424.055 396.818C426.479 379.848 432.721 364.697 442.782 351.364C452.964 337.909 466.903 327.364 484.6 319.727C502.418 311.97 523.812 308.091 548.782 308.091C566.6 308.091 583.024 310.212 598.055 314.455C613.085 318.576 626.176 324.636 637.327 332.636C648.479 340.515 657.085 350.212 663.145 361.727C669.327 373.242 672.418 386.394 672.418 401.182V591H588.782V552.091H586.6C581.63 561.545 575.267 569.545 567.509 576.091C559.873 582.636 550.842 587.545 540.418 590.818C530.115 594.091 518.479 595.727 505.509 595.727ZM532.964 537.545C542.539 537.545 551.145 535.606 558.782 531.727C566.539 527.848 572.721 522.515 577.327 515.727C581.933 508.818 584.236 500.818 584.236 491.727V465.182C581.691 466.515 578.6 467.727 574.964 468.818C571.448 469.909 567.57 470.939 563.327 471.909C559.085 472.879 554.721 473.727 550.236 474.455C545.752 475.182 541.448 475.848 537.327 476.455C528.964 477.788 521.812 479.848 515.873 482.636C510.055 485.424 505.57 489.061 502.418 493.545C499.388 497.909 497.873 503.121 497.873 509.182C497.873 518.394 501.145 525.424 507.691 530.273C514.358 535.121 522.782 537.545 532.964 537.545ZM666.069 591V540.273L795.524 382.636V380.818H670.615V311.727H901.524V367.364L781.524 520.091V521.909H905.887V591H666.069ZM288.805 891.273C259.472 891.273 234.26 885.273 213.169 873.273C192.199 861.152 176.018 844.303 164.624 822.727C153.351 801.03 147.715 775.879 147.715 747.273C147.715 718.545 153.351 693.394 164.624 671.818C176.018 650.121 192.199 633.273 213.169 621.273C234.26 609.152 259.472 603.091 288.805 603.091C318.139 603.091 343.29 609.152 364.26 621.273C385.351 633.273 401.533 650.121 412.805 671.818C424.199 693.394 429.896 718.545 429.896 747.273C429.896 775.879 424.199 801.03 412.805 822.727C401.533 844.303 385.351 861.152 364.26 873.273C343.29 885.273 318.139 891.273 288.805 891.273ZM289.351 824.182C300.018 824.182 309.048 820.909 316.442 814.364C323.836 807.818 329.472 798.727 333.351 787.091C337.351 775.455 339.351 762 339.351 746.727C339.351 731.212 337.351 717.636 333.351 706C329.472 694.364 323.836 685.273 316.442 678.727C309.048 672.182 300.018 668.909 289.351 668.909C278.321 668.909 268.987 672.182 261.351 678.727C253.836 685.273 248.078 694.364 244.078 706C240.199 717.636 238.26 731.212 238.26 746.727C238.26 762 240.199 775.455 244.078 787.091C248.078 798.727 253.836 807.818 261.351 814.364C268.987 820.909 278.321 824.182 289.351 824.182ZM552.045 891.273C522.712 891.273 497.5 885.273 476.409 873.273C455.439 861.152 439.258 844.303 427.864 822.727C416.591 801.03 410.955 775.879 410.955 747.273C410.955 718.545 416.591 693.394 427.864 671.818C439.258 650.121 455.439 633.273 476.409 621.273C497.5 609.152 522.712 603.091 552.045 603.091C581.379 603.091 606.53 609.152 627.5 621.273C648.591 633.273 664.773 650.121 676.045 671.818C687.439 693.394 693.136 718.545 693.136 747.273C693.136 775.879 687.439 801.03 676.045 822.727C664.773 844.303 648.591 861.152 627.5 873.273C606.53 885.273 581.379 891.273 552.045 891.273ZM552.591 824.182C563.258 824.182 572.288 820.909 579.682 814.364C587.076 807.818 592.712 798.727 596.591 787.091C600.591 775.455 602.591 762 602.591 746.727C602.591 731.212 600.591 717.636 596.591 706C592.712 694.364 587.076 685.273 579.682 678.727C572.288 672.182 563.258 668.909 552.591 668.909C541.561 668.909 532.227 672.182 524.591 678.727C517.076 685.273 511.318 694.364 507.318 706C503.439 717.636 501.5 731.212 501.5 746.727C501.5 762 503.439 775.455 507.318 787.091C511.318 798.727 517.076 807.818 524.591 814.364C532.227 820.909 541.561 824.182 552.591 824.182ZM815.285 891.273C785.952 891.273 760.74 885.273 739.649 873.273C718.679 861.152 702.498 844.303 691.104 822.727C679.831 801.03 674.195 775.879 674.195 747.273C674.195 718.545 679.831 693.394 691.104 671.818C702.498 650.121 718.679 633.273 739.649 621.273C760.74 609.152 785.952 603.091 815.285 603.091C844.619 603.091 869.77 609.152 890.74 621.273C911.831 633.273 928.013 650.121 939.285 671.818C950.679 693.394 956.376 718.545 956.376 747.273C956.376 775.879 950.679 801.03 939.285 822.727C928.013 844.303 911.831 861.152 890.74 873.273C869.77 885.273 844.619 891.273 815.285 891.273ZM815.831 824.182C826.498 824.182 835.528 820.909 842.922 814.364C850.316 807.818 855.952 798.727 859.831 787.091C863.831 775.455 865.831 762 865.831 746.727C865.831 731.212 863.831 717.636 859.831 706C855.952 694.364 850.316 685.273 842.922 678.727C835.528 672.182 826.498 668.909 815.831 668.909C804.801 668.909 795.467 672.182 787.831 678.727C780.316 685.273 774.558 694.364 770.558 706C766.679 717.636 764.74 731.212 764.74 746.727C764.74 762 766.679 775.455 770.558 787.091C774.558 798.727 780.316 807.818 787.831 814.364C795.467 820.909 804.801 824.182 815.831 824.182Z" fill="#1C1C1C"/>
<rect x="43" y="43" width="57.3281" height="26" rx="2" fill="white"/>
<rect x="43.5" y="43.5" width="56.3281" height="25" rx="1.5" stroke="black" stroke-opacity="0.14902"/>
<path d="M52.3438 53C52.2969 52.6042 52.1068 52.2969 51.7734 52.0781C51.4401 51.8594 51.0313 51.75 50.5469 51.75C50.1927 51.75 49.8828 51.8073 49.6172 51.9219C49.3542 52.0365 49.1484 52.194 49 52.3945C48.8542 52.5951 48.7813 52.8229 48.7813 53.0781C48.7813 53.2917 48.832 53.4753 48.9336 53.6289C49.0378 53.7799 49.1706 53.9062 49.332 54.0078C49.4935 54.1068 49.6628 54.1888 49.8398 54.2539C50.0169 54.3164 50.1797 54.3672 50.3281 54.4062L51.1406 54.625C51.349 54.6797 51.5807 54.7552 51.8359 54.8516C52.0938 54.9479 52.3398 55.0794 52.5742 55.2461C52.8112 55.4102 53.0065 55.6211 53.1602 55.8789C53.3138 56.1367 53.3906 56.4531 53.3906 56.8281C53.3906 57.2604 53.2773 57.651 53.0508 58C52.8268 58.349 52.4987 58.6263 52.0664 58.832C51.6367 59.0378 51.1146 59.1406 50.5 59.1406C49.9271 59.1406 49.431 59.0482 49.0117 58.8633C48.5951 58.6784 48.2669 58.4206 48.0273 58.0898C47.7904 57.7591 47.6563 57.375 47.625 56.9375H48.625C48.651 57.2396 48.7526 57.4896 48.9297 57.6875C49.1094 57.8828 49.3359 58.0286 49.6094 58.125C49.8854 58.2187 50.1823 58.2656 50.5 58.2656C50.8698 58.2656 51.2018 58.2057 51.4961 58.0859C51.7904 57.9635 52.0234 57.7943 52.1953 57.5781C52.3672 57.3594 52.4531 57.1042 52.4531 56.8125C52.4531 56.5469 52.3789 56.3307 52.2305 56.1641C52.082 55.9974 51.8867 55.862 51.6445 55.7578C51.4023 55.6536 51.1406 55.5625 50.8594 55.4844L49.875 55.2031C49.25 55.0234 48.7552 54.7669 48.3906 54.4336C48.026 54.1003 47.8438 53.6641 47.8438 53.125C47.8438 52.6771 47.9648 52.2865 48.207 51.9531C48.4518 51.6172 48.7799 51.3568 49.1914 51.1719C49.6055 50.9844 50.0677 50.8906 50.5781 50.8906C51.0938 50.8906 51.5521 50.9831 51.9531 51.168C52.3542 51.3503 52.6719 51.6003 52.9062 51.918C53.1432 52.2357 53.2682 52.5964 53.2813 53H52.3438ZM57.374 59.125C56.7959 59.125 56.2972 58.9974 55.8779 58.7422C55.4613 58.4844 55.1396 58.125 54.9131 57.6641C54.6891 57.2005 54.5771 56.6615 54.5771 56.0469C54.5771 55.4323 54.6891 54.8906 54.9131 54.4219C55.1396 53.9505 55.4548 53.5833 55.8584 53.3203C56.2646 53.0547 56.7386 52.9219 57.2803 52.9219C57.5928 52.9219 57.9014 52.974 58.2061 53.0781C58.5107 53.1823 58.7881 53.3516 59.0381 53.5859C59.2881 53.8177 59.4873 54.125 59.6357 54.5078C59.7842 54.8906 59.8584 55.362 59.8584 55.9219V56.3125H55.2334V55.5156H58.9209C58.9209 55.1771 58.8532 54.875 58.7178 54.6094C58.585 54.3437 58.3949 54.1341 58.1475 53.9805C57.9027 53.8268 57.6136 53.75 57.2803 53.75C56.9131 53.75 56.5954 53.8411 56.3271 54.0234C56.0615 54.2031 55.8571 54.4375 55.7139 54.7266C55.5706 55.0156 55.499 55.3255 55.499 55.6562V56.1875C55.499 56.6406 55.5771 57.0247 55.7334 57.3398C55.8923 57.6523 56.1123 57.8906 56.3936 58.0547C56.6748 58.2161 57.0016 58.2969 57.374 58.2969C57.6162 58.2969 57.835 58.263 58.0303 58.1953C58.2282 58.125 58.3988 58.0208 58.542 57.8828C58.6852 57.7422 58.7959 57.5677 58.874 57.3594L59.7646 57.6094C59.6709 57.9115 59.5133 58.1771 59.292 58.4062C59.0706 58.6328 58.7972 58.8099 58.4717 58.9375C58.1462 59.0625 57.7803 59.125 57.374 59.125ZM63.6982 59.125C63.1357 59.125 62.6514 58.9922 62.2451 58.7266C61.8389 58.4609 61.5264 58.0951 61.3076 57.6289C61.0889 57.1628 60.9795 56.6302 60.9795 56.0312C60.9795 55.4219 61.0915 54.8841 61.3154 54.418C61.542 53.9492 61.8571 53.5833 62.2607 53.3203C62.667 53.0547 63.141 52.9219 63.6826 52.9219C64.1045 52.9219 64.4847 53 64.8232 53.1562C65.1618 53.3125 65.4391 53.5312 65.6553 53.8125C65.8714 54.0937 66.0055 54.4219 66.0576 54.7969H65.1357C65.0654 54.5234 64.9092 54.2812 64.667 54.0703C64.4274 53.8568 64.1045 53.75 63.6982 53.75C63.3389 53.75 63.0238 53.8437 62.7529 54.0312C62.4847 54.2161 62.2751 54.4779 62.124 54.8164C61.9756 55.1523 61.9014 55.5469 61.9014 56C61.9014 56.4635 61.9743 56.8672 62.1201 57.2109C62.2686 57.5547 62.4769 57.8216 62.7451 58.0117C63.016 58.2018 63.3337 58.2969 63.6982 58.2969C63.9378 58.2969 64.1553 58.2552 64.3506 58.1719C64.5459 58.0885 64.7113 57.9688 64.8467 57.8125C64.9821 57.6562 65.0785 57.4687 65.1357 57.25H66.0576C66.0055 57.6042 65.8766 57.9232 65.6709 58.207C65.4678 58.4883 65.1982 58.7122 64.8623 58.8789C64.529 59.043 64.141 59.125 63.6982 59.125ZM70.0146 53V53.7812H66.9053V53H70.0146ZM67.8115 51.5625H68.7334V57.2812C68.7334 57.5417 68.7712 57.737 68.8467 57.8672C68.9248 57.9948 69.0238 58.0807 69.1436 58.125C69.266 58.1667 69.3949 58.1875 69.5303 58.1875C69.6318 58.1875 69.7152 58.1823 69.7803 58.1719C69.8454 58.1589 69.8975 58.1484 69.9365 58.1406L70.124 58.9687C70.0615 58.9922 69.9743 59.0156 69.8623 59.0391C69.7503 59.0651 69.6084 59.0781 69.4365 59.0781C69.1761 59.0781 68.9209 59.0221 68.6709 58.9102C68.4235 58.7982 68.2178 58.6276 68.0537 58.3984C67.8923 58.1693 67.8115 57.8802 67.8115 57.5312V51.5625ZM71.4014 59V53H72.3232V59H71.4014ZM71.8701 52C71.6904 52 71.5355 51.9388 71.4053 51.8164C71.2777 51.694 71.2139 51.5469 71.2139 51.375C71.2139 51.2031 71.2777 51.056 71.4053 50.9336C71.5355 50.8112 71.6904 50.75 71.8701 50.75C72.0498 50.75 72.2035 50.8112 72.3311 50.9336C72.4613 51.056 72.5264 51.2031 72.5264 51.375C72.5264 51.5469 72.4613 51.694 72.3311 51.8164C72.2035 51.9388 72.0498 52 71.8701 52ZM76.4492 59.125C75.9076 59.125 75.4323 58.9961 75.0234 58.7383C74.6172 58.4805 74.2995 58.1198 74.0703 57.6562C73.8438 57.1927 73.7305 56.651 73.7305 56.0312C73.7305 55.4062 73.8438 54.8607 74.0703 54.3945C74.2995 53.9284 74.6172 53.5664 75.0234 53.3086C75.4323 53.0508 75.9076 52.9219 76.4492 52.9219C76.9909 52.9219 77.4648 53.0508 77.8711 53.3086C78.2799 53.5664 78.5977 53.9284 78.8242 54.3945C79.0534 54.8607 79.168 55.4062 79.168 56.0312C79.168 56.651 79.0534 57.1927 78.8242 57.6562C78.5977 58.1198 78.2799 58.4805 77.8711 58.7383C77.4648 58.9961 76.9909 59.125 76.4492 59.125ZM76.4492 58.2969C76.8607 58.2969 77.1992 58.1914 77.4648 57.9805C77.7305 57.7695 77.9271 57.4922 78.0547 57.1484C78.1823 56.8047 78.2461 56.4323 78.2461 56.0312C78.2461 55.6302 78.1823 55.2565 78.0547 54.9102C77.9271 54.5638 77.7305 54.2839 77.4648 54.0703C77.1992 53.8568 76.8607 53.75 76.4492 53.75C76.0378 53.75 75.6992 53.8568 75.4336 54.0703C75.168 54.2839 74.9714 54.5638 74.8438 54.9102C74.7161 55.2565 74.6523 55.6302 74.6523 56.0312C74.6523 56.4323 74.7161 56.8047 74.8438 57.1484C74.9714 57.4922 75.168 57.7695 75.4336 57.9805C75.6992 58.1914 76.0378 58.2969 76.4492 58.2969ZM81.4971 55.3906V59H80.5752V53H81.4658V53.9375H81.5439C81.6846 53.6328 81.8981 53.388 82.1846 53.2031C82.471 53.0156 82.8408 52.9219 83.2939 52.9219C83.7002 52.9219 84.0557 53.0052 84.3604 53.1719C84.665 53.3359 84.902 53.5859 85.0713 53.9219C85.2406 54.2552 85.3252 54.6771 85.3252 55.1875V59H84.4033V55.25C84.4033 54.7786 84.2809 54.4115 84.0361 54.1484C83.7913 53.8828 83.4554 53.75 83.0283 53.75C82.734 53.75 82.471 53.8138 82.2393 53.9414C82.0101 54.069 81.8291 54.2552 81.6963 54.5C81.5635 54.7448 81.4971 55.0417 81.4971 55.3906ZM89.9004 57.3594V56.5625L93.416 51H93.9941V52.2344H93.6035L90.9473 56.4375V56.5H95.6816V57.3594H89.9004ZM93.666 59V57.1172V56.7461V51H94.5879V59H93.666Z" fill="black"/>
</svg>
